<svg xmlns="http://www.w3.org/2000/svg" version="1.1" xmlns:xlink="http://www.w3.org/1999/xlink" viewBox="0 0 200 200"><rect width="200" height="200" fill="url('#gradient')"></rect><defs><linearGradient id="gradient" gradientTransform="rotate(97 0.5 0.5)"><stop offset="0%" stop-color="#f81551"></stop><stop offset="100%" stop-color="#4398ad"></stop></linearGradient></defs><g><g fill="#416397" transform="matrix(1.4928289992119779,0,0,1.4928289992119779,24.398608354455007,107.50822613943835)" stroke="#fff500" stroke-width="0.35"><path d="M6.85 0L1.07 0L1.07-14.22L6.18-14.22Q8.93-14.22 10.36-13.21Q11.79-12.21 11.79-10.29L11.79-10.29Q11.79-9.19 11.28-8.41Q10.77-7.63 9.79-7.26L9.79-7.26Q10.90-6.96 11.49-6.16Q12.09-5.36 12.09-4.21L12.09-4.21Q12.09-2.12 10.77-1.07Q9.44-0.02 6.85 0L6.85 0ZM6.90-6.04L4.50-6.04L4.50-2.64L6.75-2.64Q7.68-2.64 8.17-3.06Q8.67-3.49 8.67-4.26L8.67-4.26Q8.67-6.04 6.90-6.04L6.90-6.04ZM4.50-11.57L4.50-8.29L6.29-8.29Q7.41-8.30 7.89-8.70Q8.37-9.10 8.37-9.88L8.37-9.88Q8.37-10.78 7.85-11.18Q7.33-11.57 6.18-11.57L6.18-11.57L4.50-11.57ZM20.21 0L20.12-1.14Q19.07 0.20 17.29 0.20L17.29 0.20Q15.56 0.20 14.66-0.82Q13.77-1.83 13.77-3.72L13.77-3.72L13.77-10.57L17.06-10.57L17.06-3.70Q17.06-2.34 18.38-2.34L18.38-2.34Q19.51-2.34 19.99-3.15L19.99-3.15L19.99-10.57L23.30-10.57L23.30 0L20.21 0ZM24.72-5.24L24.72-5.36Q24.72-6.96 25.24-8.19Q25.77-9.42 26.76-10.09Q27.74-10.76 29.05-10.76L29.05-10.76Q30.70-10.76 31.63-9.65L31.63-9.65L31.75-10.57L34.74-10.57L34.74-0.40Q34.74 1.00 34.09 2.03Q33.44 3.06 32.21 3.61Q30.98 4.16 29.36 4.16L29.36 4.16Q28.19 4.16 27.10 3.72Q26.02 3.28 25.44 2.58L25.44 2.58L26.82 0.64Q27.73 1.73 29.24 1.73L29.24 1.73Q31.43 1.73 31.43-0.52L31.43-0.52L31.43-0.85Q30.48 0.20 29.03 0.20L29.03 0.20Q27.10 0.20 25.91-1.28Q24.72-2.76 24.72-5.24L24.72-5.24ZM28.02-5.16L28.02-5.16Q28.02-3.86 28.51-3.10Q28.99-2.34 29.87-2.34L29.87-2.34Q30.94-2.34 31.43-3.06L31.43-3.06L31.43-7.50Q30.95-8.22 29.89-8.22L29.89-8.22Q29.01-8.22 28.52-7.44Q28.02-6.65 28.02-5.16ZM47.51 0L41.74 0L41.74-14.22L46.85-14.22Q49.59-14.22 51.02-13.21Q52.45-12.21 52.45-10.29L52.45-10.29Q52.45-9.19 51.94-8.41Q51.44-7.63 50.45-7.26L50.45-7.26Q51.56-6.96 52.16-6.16Q52.75-5.36 52.75-4.21L52.75-4.21Q52.75-2.12 51.43-1.07Q50.11-0.02 47.51 0L47.51 0ZM47.57-6.04L45.17-6.04L45.17-2.64L47.41-2.64Q48.34-2.64 48.84-3.06Q49.34-3.49 49.34-4.26L49.34-4.26Q49.34-6.04 47.57-6.04L47.57-6.04ZM45.17-11.57L45.17-8.29L46.95-8.29Q48.08-8.30 48.55-8.70Q49.03-9.10 49.03-9.88L49.03-9.88Q49.03-10.78 48.52-11.18Q48.00-11.57 46.85-11.57L46.85-11.57L45.17-11.57ZM60.88 0L60.78-1.14Q59.74 0.20 57.96 0.20L57.96 0.20Q56.22 0.20 55.33-0.82Q54.43-1.83 54.43-3.72L54.43-3.72L54.43-10.57L57.72-10.57L57.72-3.70Q57.72-2.34 59.04-2.34L59.04-2.34Q60.18-2.34 60.65-3.15L60.65-3.15L60.65-10.57L63.96-10.57L63.96 0L60.88 0ZM71.30-2.97L71.30-2.97Q71.30-3.39 70.86-3.64Q70.42-3.90 69.19-4.17Q67.96-4.44 67.16-4.89Q66.36-5.33 65.94-5.97Q65.52-6.60 65.52-7.42L65.52-7.42Q65.52-8.88 66.72-9.82Q67.92-10.76 69.86-10.76L69.86-10.76Q71.95-10.76 73.22-9.81Q74.49-8.87 74.49-7.32L74.49-7.32L71.19-7.32Q71.19-8.59 69.85-8.59L69.85-8.59Q69.34-8.59 68.98-8.31Q68.63-8.02 68.63-7.59L68.63-7.59Q68.63-7.15 69.06-6.88Q69.49-6.60 70.43-6.43Q71.38-6.25 72.09-6.01L72.09-6.01Q74.47-5.19 74.47-3.07L74.47-3.07Q74.47-1.62 73.19-0.71Q71.90 0.20 69.86 0.20L69.86 0.20Q68.51 0.20 67.44-0.29Q66.38-0.78 65.78-1.62Q65.19-2.46 65.19-3.39L65.19-3.39L68.26-3.39Q68.28-2.66 68.75-2.32Q69.22-1.98 69.95-1.98L69.95-1.98Q70.63-1.98 70.96-2.26Q71.30-2.53 71.30-2.97ZM76.55-13.19L79.84-13.19L79.84-10.57L81.58-10.57L81.58-8.28L79.84-8.28L79.84-3.45Q79.84-2.85 80.06-2.62Q80.27-2.38 80.91-2.38L80.91-2.38Q81.40-2.38 81.73-2.44L81.73-2.44L81.73-0.09Q80.84 0.20 79.87 0.20L79.87 0.20Q78.17 0.20 77.36-0.61Q76.55-1.41 76.55-3.04L76.55-3.04L76.55-8.28L75.21-8.28L75.21-10.57L76.55-10.57L76.55-13.19ZM87.99 0.20L87.99 0.20Q85.56 0.20 84.05-1.25Q82.55-2.71 82.55-5.03L82.55-5.03L82.55-5.30Q82.55-6.92 83.15-8.16Q83.75-9.40 84.90-10.08Q86.05-10.76 87.64-10.76L87.64-10.76Q89.86-10.76 91.15-9.38Q92.44-8.00 92.44-5.53L92.44-5.53L92.44-4.25L85.90-4.25Q86.07-3.36 86.67-2.85Q87.27-2.34 88.21-2.34L88.21-2.34Q89.78-2.34 90.65-3.44L90.65-3.44L92.16-1.66Q91.54-0.81 90.42-0.31Q89.29 0.20 87.99 0.20ZM87.62-8.22L87.62-8.22Q86.17-8.22 85.90-6.31L85.90-6.31L89.22-6.31L89.22-6.56Q89.24-7.35 88.82-7.79Q88.40-8.22 87.62-8.22ZM100.21-10.64L100.16-7.59L99.07-7.67Q97.52-7.67 97.08-6.69L97.08-6.69L97.08 0L93.79 0L93.79-10.57L96.88-10.57L96.98-9.21Q97.81-10.76 99.30-10.76L99.30-10.76Q99.82-10.76 100.21-10.64L100.21-10.64Z"></path></g></g></svg>